<?xml version="1.0" encoding="UTF-8" standalone="no"?>
<svg width="218px" height="115px" viewBox="0 0 218 115" version="1.1" xmlns="http://www.w3.org/2000/svg" xmlns:xlink="http://www.w3.org/1999/xlink">
    <!-- Generator: Sketch 47.1 (45422) - http://www.bohemiancoding.com/sketch -->
    <title>ornament1white</title>
    <desc>Created with Sketch.</desc>
    <defs></defs>
    <g id="Page-1" stroke="none" stroke-width="1" fill="none" fill-rule="evenodd">
        <g id="ornament1white">
            <rect id="Rectangle-2" fill="#000000" x="0" y="0" width="218" height="115"></rect>
            <path d="M50.9411255,33.9411255 L50.9411255,77.9411255 L94.9411255,77.9411255 L94.9411255,33.9411255 L50.9411255,33.9411255 Z M48.9411255,31.9411255 L96.9411255,31.9411255 L96.9411255,79.9411255 L48.9411255,79.9411255 L48.9411255,31.9411255 Z" id="Rectangle" fill="#FFFFFF" fill-rule="nonzero" transform="translate(72.941125, 55.941125) rotate(45.000000) translate(-72.941125, -55.941125) "></path>
            <path d="M118.741129,77.9411255 L162.741129,77.9411255 L162.741129,33.9411255 L118.741129,33.9411255 L118.741129,77.9411255 Z M116.741129,31.9411255 L164.741129,31.9411255 L164.741129,79.9411255 L116.741129,79.9411255 L116.741129,31.9411255 Z" id="Rectangle" fill="#FFFFFF" fill-rule="nonzero" transform="translate(140.741129, 55.941125) rotate(45.000000) translate(-140.741129, -55.941125) "></path>
            <path d="M84.9411255,19.9411255 L84.9411255,63.9411255 L128.941125,63.9411255 L128.941125,19.9411255 L84.9411255,19.9411255 Z M82.9411255,17.9411255 L130.941125,17.9411255 L130.941125,65.9411255 L82.9411255,65.9411255 L82.9411255,17.9411255 Z" id="Rectangle" fill="#FFFFFF" fill-rule="nonzero" transform="translate(106.941125, 41.941125) rotate(45.000000) translate(-106.941125, -41.941125) "></path>
            <path d="M84.9411255,46.9411255 L84.9411255,90.9411255 L128.941125,90.9411255 L128.941125,46.9411255 L84.9411255,46.9411255 Z M82.9411255,44.9411255 L130.941125,44.9411255 L130.941125,92.9411255 L82.9411255,92.9411255 L82.9411255,44.9411255 Z" id="Rectangle" fill="#FFFFFF" fill-rule="nonzero" transform="translate(106.941125, 68.941125) rotate(45.000000) translate(-106.941125, -68.941125) "></path>
        </g>
    </g>
</svg>