<?xml version="1.0" encoding="UTF-8" standalone="no"?>
<svg width="136px" height="95px" viewBox="0 0 136 95" version="1.1" xmlns="http://www.w3.org/2000/svg" xmlns:xlink="http://www.w3.org/1999/xlink">
    <!-- Generator: Sketch 47.1 (45422) - http://www.bohemiancoding.com/sketch -->
    <title>ornament1blue</title>
    <desc>Created with Sketch.</desc>
    <defs></defs>
    <g id="Page-1" stroke="none" stroke-width="1" fill="none" fill-rule="evenodd">
        <g id="ornament1blue" fill-rule="nonzero" fill="#2288AA">
            <path d="M11.9411255,25.9411255 L11.9411255,69.9411255 L55.9411255,69.9411255 L55.9411255,25.9411255 L11.9411255,25.9411255 Z M9.9411255,23.9411255 L57.9411255,23.9411255 L57.9411255,71.9411255 L9.9411255,71.9411255 L9.9411255,23.9411255 Z" id="Rectangle" transform="translate(33.941125, 47.941125) rotate(45.000000) translate(-33.941125, -47.941125) "></path>
            <path d="M79.7411285,69.9411255 L123.741129,69.9411255 L123.741129,25.9411255 L79.7411285,25.9411255 L79.7411285,69.9411255 Z M77.7411285,23.9411255 L125.741129,23.9411255 L125.741129,71.9411255 L77.7411285,71.9411255 L77.7411285,23.9411255 Z" id="Rectangle" transform="translate(101.741129, 47.941125) rotate(45.000000) translate(-101.741129, -47.941125) "></path>
            <path d="M45.9411255,11.9411255 L45.9411255,55.9411255 L89.9411255,55.9411255 L89.9411255,11.9411255 L45.9411255,11.9411255 Z M43.9411255,9.9411255 L91.9411255,9.9411255 L91.9411255,57.9411255 L43.9411255,57.9411255 L43.9411255,9.9411255 Z" id="Rectangle" transform="translate(67.941125, 33.941125) rotate(45.000000) translate(-67.941125, -33.941125) "></path>
            <path d="M45.9411255,38.9411255 L45.9411255,82.9411255 L89.9411255,82.9411255 L89.9411255,38.9411255 L45.9411255,38.9411255 Z M43.9411255,36.9411255 L91.9411255,36.9411255 L91.9411255,84.9411255 L43.9411255,84.9411255 L43.9411255,36.9411255 Z" id="Rectangle" transform="translate(67.941125, 60.941125) rotate(45.000000) translate(-67.941125, -60.941125) "></path>
        </g>
    </g>
</svg>